<?xml version="1.0" encoding="UTF-8" standalone="no"?>
<svg
   width="326.66666"
   height="528"
   viewBox="0 0 326.66666 528.00002"
   fill="none"
   version="1.1"
   id="svg35"
   sodipodi:docname="tyre1.svg"
   xml:space="preserve"
   inkscape:version="1.3.2 (091e20e, 2023-11-25, custom)"
   xmlns:inkscape="http://www.inkscape.org/namespaces/inkscape"
   xmlns:sodipodi="http://sodipodi.sourceforge.net/DTD/sodipodi-0.dtd"
   xmlns="http://www.w3.org/2000/svg"
   xmlns:svg="http://www.w3.org/2000/svg"><path
     style="fill:#000000"
     d="M 421.0137,53.398855 C 415.12985,52.845979 409.29973,48.78864 406.34159,43.188137 l -2.32789,-4.407284 v -53.277616 c 0,-35.076327 0.36197,-54.239342 1.05954,-56.092717 1.67854,-4.459745 7.94641,-10.239129 12.41475,-11.447208 2.31183,-0.625037 12.79492,-1.074247 24.62357,-1.055141 16.69443,0.02697 21.33475,0.341164 24.48635,1.657988 5.12116,2.139758 8.26864,5.138777 10.52575,10.029262 1.72155,3.730107 1.8457,7.576086 1.83991,57 l -0.006,53 -2.2984,4.5 c -1.55848,3.051331 -3.8573,5.465779 -7.14082,7.5 l -4.84242,3 -19.58101,0.113138 c -10.76955,0.06223 -21.60601,-0.07714 -24.08101,-0.309704 z"
     id="path1"
     name="Tyre Top Left"
     isTyre="1" /><path
     style="fill:#000000"
     d="m 778.63518,54.684403 c -5.1229,-1.586735 -11.11621,-6.726172 -13.88631,-11.907903 -2.21835,-4.149617 -2.23737,-4.567583 -2.52803,-55.543989 -0.33413,-58.599162 -0.38787,-58.120378 7.37092,-65.661061 6.32944,-6.151513 10.27253,-6.965882 33.42194,-6.902656 17.96597,0.04907 19.89236,0.229123 24.48755,2.288789 6.68981,2.998527 8.93495,5.302088 11.68908,11.993224 l 2.32337,5.644614 v 51.5 51.5 l -2.31793,4.706053 c -3.03701,6.16598 -7.93219,10.345291 -14.34948,12.251021 -6.4754,1.922989 -40.11842,2.019022 -46.21111,0.131908 z"
     id="path2"
     name="Tyre Top Right"
     isTyre="1" /><path
     style="fill:#000000"
     d="m 419.13696,344.09344 c -6.00579,-1.41799 -11.3781,-6.00712 -14.61128,-12.48122 l -2.98802,-5.9832 -0.012,-51.0168 c -0.0136,-57.96574 -0.1434,-56.91475 7.94996,-64.37495 6.2542,-5.76492 9.90806,-6.48354 32.53806,-6.39937 15.3931,0.0573 20.44476,0.41611 23.98583,1.70387 5.36077,1.94953 9.44038,5.61511 12.30214,11.05365 2.8653,5.44526 3.50631,20.36341 3.02927,70.5 l -0.37584,39.5 -2.54831,5.25831 c -2.95597,6.09949 -7.3743,9.82986 -14.00693,11.82599 -5.18736,1.56116 -39.09047,1.87105 -45.2629,0.41372 z"
     id="path3"
     name="Tyre Middle Left"
     isTyre="1" /><path
     style="fill:#000000"
     d="m 779.77807,344.01354 c -7.97477,-1.88061 -13.66982,-7.63087 -16.33793,-16.49633 -2.06778,-6.87069 -2.09635,-99.87803 -0.0328,-106.73472 2.02836,-6.73973 6.64883,-12.0289 12.83155,-14.68864 4.90723,-2.11104 6.68272,-2.2661 26.05,-2.27516 l 20.78384,-0.01 5.72048,2.92175 c 7.77808,3.97266 11.78468,10.48667 12.7255,20.68937 0.36391,3.94641 0.50209,27.8753 0.30707,53.1753 -0.32391,42.01974 -0.51414,46.36916 -2.19846,50.26635 -2.60969,6.03831 -9.53607,11.83683 -15.72453,13.16401 -5.89696,1.26468 -38.74864,1.25559 -44.12473,-0.0122 z"
     id="path4"
     name="Tyre Middle Right"
     isTyre="1" /><path
     style="fill:#000000"
     d="m 418.46953,632.99771 c -5.66376,-1.31446 -10.8443,-5.95667 -14.14226,-12.6727 l -2.81357,-5.72959 0.0223,-50 c 0.0179,-40.24988 0.30051,-50.97435 1.44901,-54.99663 1.93857,-6.78924 8.82432,-13.71087 15.2492,-15.32868 5.75277,-1.44856 40.81701,-1.56977 45.89712,-0.15866 7.74102,2.15025 13.81892,8.32091 15.93455,16.17776 1.21467,4.51092 1.60177,96.53714 0.43802,104.12969 -1.04751,6.83418 -5.84388,13.50622 -11.95823,16.63463 -4.80414,2.45804 -5.64536,2.54751 -25.5,2.71233 -11.29258,0.0937 -22.35184,-0.25193 -24.57614,-0.76815 z"
     id="path5"
     name="Tyre Bottom Left"
     isTyre="1" /><path
     style="fill:#000000"
     d="m 782.5137,633.20452 c -7.68475,-0.99325 -13.26758,-4.65966 -16.87165,-11.08009 l -3.0711,-5.471 -0.21919,-36.25947 c -0.12056,-19.94271 0.11675,-44.55169 0.52734,-54.68661 0.71667,-17.68978 0.85345,-18.58869 3.41818,-22.46426 1.4694,-2.22041 4.81922,-5.29949 7.44403,-6.84239 l 4.77239,-2.80528 23.15541,0.0662 c 22.64501,0.0648 23.26199,0.12109 27.99107,2.55476 3.39288,1.74603 5.73343,3.94019 7.8446,7.35397 l 3.00892,4.86544 0.30965,50.5798 c 0.17031,27.81888 0.0243,52.95123 -0.32443,55.84964 -0.82222,6.83335 -5.26685,12.87 -11.89964,16.16194 -4.58844,2.27731 -6.04907,2.44424 -22.99264,2.62768 -9.95112,0.10773 -20.34294,-0.0949 -23.09294,-0.45037 z"
     id="path6"
     name="Tyre Bottom Right"
     isTyre="1" /><path
     style="fill:#000000"
     d="m 594.17327,572.09542 c -20.93798,-0.49057 -21.37643,-0.54452 -23.25,-2.86078 -1.05026,-1.29843 -1.90957,-2.98593 -1.90957,-3.75 0,-1.16319 -6.71718,-1.38922 -41.28536,-1.38922 h -41.28536 l 0.0354,-4.25 0.0354,-4.25 41.25,-0.26109 41.25,-0.2611 v -2.90001 c 0,-2.01068 0.94353,-3.69394 3.07673,-5.48891 3.07255,-2.58538 3.10236,-2.58889 21.98011,-2.58889 h 18.90339 l 0.26988,-21.25 c 0.26904,-21.18282 0.27701,-21.25101 2.51989,-21.56955 l 2.25,-0.31955 v -85.43045 -85.43045 h -2.5 -2.5 v -23 -23 l -18.25,-0.0147 c -20.18454,-0.0163 -22.32733,-0.51137 -24.75,-5.71817 l -1.5,-3.2238 -40.75,-0.0217 -40.75,-0.0216 v -4.5 -4.5 h 41 41 v -2.38922 c 0,-1.31406 0.83596,-3.42158 1.85769,-4.68336 2.2868,-2.82408 9.57018,-3.80118 28.89231,-3.87607 l 13.25,-0.0514 v -23 -23 h 2.5 2.5 v -84 c 0,-83.027734 -0.0229,-83.999999 -1.9784,-83.999999 -1.89329,0 -1.9901,-0.828219 -2.25,-19.25 l -0.2716,-19.2500002 -19.34051,-0.5 C 571.81221,1.5173343 571.7041,1.4693325 570.4672,-8.4305004 l -0.68394,-5.4740786 H 527.52348 485.2637 l -0.625,-3.125 c -0.34375,-1.71875 -0.625,-3.74375 -0.625,-4.5 0,-1.145313 7.17092,-1.375 42.92805,-1.375 h 42.92804 l 0.71012,-5.68362 c 0.49372,-3.951559 1.41603,-6.389527 3.0265,-8 l 2.31638,-2.31638 h 45.09091 45.09091 l 2.45455,2.454545 c 2.01475,2.014752 2.45454,3.44623 2.45454,7.989264 v 5.534718 l 42.75,0.260736 42.75,0.260737 0.3075,4.25 0.3075,4.25 h -43.0575 -43.0575 v 5.3539771 c 0,4.2970973 -0.48407,5.8763046 -2.45225,8.00000001 L 666.1092,2.0954208 H 648.06145 630.0137 l -0.20906,6.25 c -0.11498,3.4375002 -0.28511,7.8250002 -0.37805,9.7500002 -0.093,1.925 -0.22387,7.8875 -0.29094,13.25 -0.1131,9.042684 -0.26704,9.75 -2.12195,9.75 -1.98412,0 -2,0.666667 -2,83.999999 0,74 0.17857,84 1.5,84 1.28986,0 1.5,3.22222 1.5,23 v 23 l 11.75,0.12332 c 24.73978,0.25966 25.38669,0.34604 28.47508,3.80256 1.52621,1.70812 2.77492,3.99857 2.77492,5.0899 0,1.94824 0.78079,1.98422 43.0575,1.98422 h 43.0575 l -0.3075,4.25 -0.3075,4.25 -42.63309,0.26065 -42.63309,0.26064 -1.28918,3.11236 c -2.08923,5.04386 -5.58207,5.86635 -24.91252,5.86635 H 628.0137 v 23 c 0,19.77778 -0.21014,23 -1.5,23 -1.31911,0 -1.52298,9.55693 -1.69058,79.25 -0.10482,43.5875 -0.21732,82.06046 -0.25,85.49546 -0.0586,6.15989 -0.0217,6.24551 2.69058,6.25 l 2.75,0.005 v 21.5 21.5 h 16.54966 c 12.36785,0 17.24597,0.36007 19.30532,1.42501 2.70438,1.39848 5.14502,5.25134 5.14502,8.12204 0,1.24807 6.06335,1.45295 43,1.45295 35.81818,0 43,0.22965 43,1.375 0,0.75625 0.28125,2.78125 0.625,4.5 l 0.625,3.125 h -43.55761 c -41.43252,0 -43.58613,0.0899 -44.14219,1.84183 -0.32151,1.01301 -1.58934,2.77639 -2.81738,3.91862 -2.11499,1.9672 -3.55205,2.09428 -27.23282,2.40817 -13.75,0.18226 -34.60319,0.10638 -46.34043,-0.16862 z"
     id="path7"
     name="Truck Axle"
     isTyre="0" /><sodipodi:namedview
     id="namedview35"
     pagecolor="#ffffff"
     bordercolor="#ffffff"
     borderopacity="1"
     inkscape:showpageshadow="0"
     inkscape:pageopacity="0"
     inkscape:pagecheckerboard="1"
     inkscape:deskcolor="#ffffff"
     inkscape:zoom="0.98106061"
     inkscape:cx="629.42085"
     inkscape:cy="269.60618"
     inkscape:window-width="1920"
     inkscape:window-height="991"
     inkscape:window-x="-9"
     inkscape:window-y="-9"
     inkscape:window-maximized="1"
     inkscape:current-layer="svg35" /><defs
     id="defs35"><filter
       id="filter0_d_89_342"
       x="3"
       y="3"
       width="44.1492"
       height="77.4459"
       filterUnits="userSpaceOnUse"
       color-interpolation-filters="sRGB"><feFlood
         flood-opacity="0"
         result="BackgroundImageFix"
         id="feFlood23" /><feColorMatrix
         in="SourceAlpha"
         type="matrix"
         values="0 0 0 0 0 0 0 0 0 0 0 0 0 0 0 0 0 0 127 0"
         result="hardAlpha"
         id="feColorMatrix23" /><feMorphology
         radius="1"
         operator="dilate"
         in="SourceAlpha"
         result="effect1_dropShadow_89_342"
         id="feMorphology23" /><feOffset
         id="feOffset23" /><feGaussianBlur
         stdDeviation="2"
         id="feGaussianBlur23" /><feComposite
         in2="hardAlpha"
         operator="out"
         id="feComposite23" /><feColorMatrix
         type="matrix"
         values="0 0 0 0 0.983333 0 0 0 0 0.795465 0 0 0 0 0.190111 0 0 0 0.99 0"
         id="feColorMatrix24" /><feBlend
         mode="luminosity"
         in2="BackgroundImageFix"
         result="effect1_dropShadow_89_342"
         id="feBlend24" /><feBlend
         mode="normal"
         in="SourceGraphic"
         in2="effect1_dropShadow_89_342"
         result="shape"
         id="feBlend25" /></filter><filter
       id="filter1_d_89_342"
       x="194.85201"
       y="0"
       width="50.1492"
       height="83.4459"
       filterUnits="userSpaceOnUse"
       color-interpolation-filters="sRGB"><feFlood
         flood-opacity="0"
         result="BackgroundImageFix"
         id="feFlood25" /><feColorMatrix
         in="SourceAlpha"
         type="matrix"
         values="0 0 0 0 0 0 0 0 0 0 0 0 0 0 0 0 0 0 127 0"
         result="hardAlpha"
         id="feColorMatrix25" /><feOffset
         id="feOffset25" /><feGaussianBlur
         stdDeviation="4"
         id="feGaussianBlur25" /><feComposite
         in2="hardAlpha"
         operator="out"
         id="feComposite25" /><feColorMatrix
         type="matrix"
         values="0 0 0 0 0.482353 0 0 0 0 0.972549 0 0 0 0 0.403922 0 0 0 0.9 0"
         id="feColorMatrix26" /><feBlend
         mode="luminosity"
         in2="BackgroundImageFix"
         result="effect1_dropShadow_89_342"
         id="feBlend26" /><feBlend
         mode="normal"
         in="SourceGraphic"
         in2="effect1_dropShadow_89_342"
         result="shape"
         id="feBlend27" /></filter><filter
       id="filter2_d_89_342"
       x="0"
       y="156.27699"
       width="50.1492"
       height="83.4459"
       filterUnits="userSpaceOnUse"
       color-interpolation-filters="sRGB"><feFlood
         flood-opacity="0"
         result="BackgroundImageFix"
         id="feFlood27" /><feColorMatrix
         in="SourceAlpha"
         type="matrix"
         values="0 0 0 0 0 0 0 0 0 0 0 0 0 0 0 0 0 0 127 0"
         result="hardAlpha"
         id="feColorMatrix27" /><feOffset
         id="feOffset27" /><feGaussianBlur
         stdDeviation="4"
         id="feGaussianBlur27" /><feComposite
         in2="hardAlpha"
         operator="out"
         id="feComposite27" /><feColorMatrix
         type="matrix"
         values="0 0 0 0 0.482353 0 0 0 0 0.972549 0 0 0 0 0.403922 0 0 0 0.9 0"
         id="feColorMatrix28" /><feBlend
         mode="luminosity"
         in2="BackgroundImageFix"
         result="effect1_dropShadow_89_342"
         id="feBlend28" /><feBlend
         mode="normal"
         in="SourceGraphic"
         in2="effect1_dropShadow_89_342"
         result="shape"
         id="feBlend29" /></filter><filter
       id="filter3_d_89_342"
       x="194.85201"
       y="156.27699"
       width="50.1492"
       height="83.4459"
       filterUnits="userSpaceOnUse"
       color-interpolation-filters="sRGB"><feFlood
         flood-opacity="0"
         result="BackgroundImageFix"
         id="feFlood29" /><feColorMatrix
         in="SourceAlpha"
         type="matrix"
         values="0 0 0 0 0 0 0 0 0 0 0 0 0 0 0 0 0 0 127 0"
         result="hardAlpha"
         id="feColorMatrix29" /><feOffset
         id="feOffset29" /><feGaussianBlur
         stdDeviation="4"
         id="feGaussianBlur29" /><feComposite
         in2="hardAlpha"
         operator="out"
         id="feComposite29" /><feColorMatrix
         type="matrix"
         values="0 0 0 0 0.482353 0 0 0 0 0.972549 0 0 0 0 0.403922 0 0 0 0.9 0"
         id="feColorMatrix30" /><feBlend
         mode="luminosity"
         in2="BackgroundImageFix"
         result="effect1_dropShadow_89_342"
         id="feBlend30" /><feBlend
         mode="normal"
         in="SourceGraphic"
         in2="effect1_dropShadow_89_342"
         result="shape"
         id="feBlend31" /></filter><filter
       id="filter4_d_89_342"
       x="0"
       y="312.55399"
       width="50.1492"
       height="83.4459"
       filterUnits="userSpaceOnUse"
       color-interpolation-filters="sRGB"><feFlood
         flood-opacity="0"
         result="BackgroundImageFix"
         id="feFlood31" /><feColorMatrix
         in="SourceAlpha"
         type="matrix"
         values="0 0 0 0 0 0 0 0 0 0 0 0 0 0 0 0 0 0 127 0"
         result="hardAlpha"
         id="feColorMatrix31" /><feOffset
         id="feOffset31" /><feGaussianBlur
         stdDeviation="4"
         id="feGaussianBlur31" /><feComposite
         in2="hardAlpha"
         operator="out"
         id="feComposite31" /><feColorMatrix
         type="matrix"
         values="0 0 0 0 0.482353 0 0 0 0 0.972549 0 0 0 0 0.403922 0 0 0 0.9 0"
         id="feColorMatrix32" /><feBlend
         mode="luminosity"
         in2="BackgroundImageFix"
         result="effect1_dropShadow_89_342"
         id="feBlend32" /><feBlend
         mode="normal"
         in="SourceGraphic"
         in2="effect1_dropShadow_89_342"
         result="shape"
         id="feBlend33" /></filter><filter
       id="filter5_d_89_342"
       x="196.85201"
       y="314.55399"
       width="46.1492"
       height="79.4459"
       filterUnits="userSpaceOnUse"
       color-interpolation-filters="sRGB"><feFlood
         flood-opacity="0"
         result="BackgroundImageFix"
         id="feFlood33" /><feColorMatrix
         in="SourceAlpha"
         type="matrix"
         values="0 0 0 0 0 0 0 0 0 0 0 0 0 0 0 0 0 0 127 0"
         result="hardAlpha"
         id="feColorMatrix33" /><feOffset
         id="feOffset33" /><feGaussianBlur
         stdDeviation="3"
         id="feGaussianBlur33" /><feComposite
         in2="hardAlpha"
         operator="out"
         id="feComposite33" /><feColorMatrix
         type="matrix"
         values="0 0 0 0 0.956563 0 0 0 0 0 0 0 0 0 0 0 0 0 1 0"
         id="feColorMatrix34" /><feBlend
         mode="color-dodge"
         in2="BackgroundImageFix"
         result="effect1_dropShadow_89_342"
         id="feBlend34" /><feBlend
         mode="normal"
         in="SourceGraphic"
         in2="effect1_dropShadow_89_342"
         result="shape"
         id="feBlend35" /></filter></defs></svg>
